<svg xmlns="http://www.w3.org/2000/svg" width="125.297" height="34.409" viewBox="0 0 125.297 34.409"><defs><style>.a{fill:#1f3c7d;}</style></defs><path class="a" d="M2125.735,130l-6.988,19.782c-.1.261-.182.327-.2.337a.337.337,0,0,1-.186.069h-.155c-.1,0-.261,0-.382-.361L2110.833,130H2105.2l7.844,22.041a4.782,4.782,0,0,0,2.026,2.579,6.067,6.067,0,0,0,3.216.849,6.188,6.188,0,0,0,3.212-.829,4.69,4.69,0,0,0,2.029-2.6L2131.368,130Z" transform="translate(-2032.8 -125.529)"/><rect class="a" width="5.386" height="25.315" transform="translate(119.911 4.547)"/><path class="a" d="M2867.9,152.274h-8.271a4.619,4.619,0,0,1-3.983-1.754,9.352,9.352,0,0,1-1.365-5.582c0-2.621.458-4.557,1.355-5.757a4.67,4.67,0,0,1,4.031-1.737h8.23V132.2h-7.116c-3.883,0-6.861,1.07-8.849,3.181s-3,5.258-3.037,9.4v.12c0,4.151,1,7.322,2.968,9.427s4.969,3.192,8.88,3.192h7.156Z" transform="translate(-2750.924 -127.653)"/><path class="a" d="M1505.417,157.519l-7.779-21.852a4.76,4.76,0,0,0-2.026-2.621,6.334,6.334,0,0,0-6.331,0,4.791,4.791,0,0,0-2.005,2.621l-7.776,21.849h5.568l6.926-19.7a.429.429,0,0,1,.468-.334.563.563,0,0,1,.3.083.4.4,0,0,1,.162.241l3.343,9.506h-4.086l1.493,3.786h3.924l2.256,6.417h5.561Z" transform="translate(-1428.619 -127.653)"/><path class="a" d="M11.535,28.658c.839.506,1.85,3.26,1.85,3.26a13.63,13.63,0,0,0-.973-4.8A21.529,21.529,0,0,0,14.1,22.633c2.793,1.235,4.481,5.912,4.481,5.912.131-4.158-2.662-8.639-4.093-9.42.65-2.727-.973-7.081-.973-7.081,21.436,1.95,24.228,21.632,24.228,21.632a.415.415,0,0,1,.028.144,21.046,21.046,0,1,0-32.984.588C8.911,32.906,11.535,28.658,11.535,28.658Z" transform="translate(0 0)"/></svg>